REM GENRE test_genre
REM DATE 2000-01-01
REM COMMENT "test_comment"
PERFORMER "test_performer"
TITLE "test2_playlist_title"
FILE "test2.mp3" MP3
  TRACK 01 AUDIO
    TITLE "test2_track1"
    INDEX 01 00:00:00
  TRACK 02 AUDIO
    TITLE "test2_track2"
    INDEX 01 00:00:01
  TRACK 03 AUDIO
    TITLE "test2_track3"
    INDEX 01 00:00:02
  TRACK 04 AUDIO
    TITLE "test2_track4"
    INDEX 01 00:00:03
